<?xml version="1.0" encoding="utf-8"?>
<!-- Generator: Adobe Illustrator 30.2.1, SVG Export Plug-In . SVG Version: 9.03 Build 0)  -->
<svg version="1.0" id="Layer_1" xmlns="http://www.w3.org/2000/svg" xmlns:xlink="http://www.w3.org/1999/xlink" x="0px" y="0px"
	 viewBox="0 0 1323 1800" style="enable-background:new 0 0 1323 1800;" xml:space="preserve">
<style type="text/css">
	.st0{fill:#FFCB05;}
</style>
<g transform="translate(0.000000,1800.000000) scale(0.100000,-0.100000)">
	<path class="st0" d="M6190,17259c-190-12-282-24-435-59c-174-41-263-64-285-76c-14-7-46-16-72-19c-25-3-52-13-58-20
		c-7-8-20-15-29-15c-10,0-46-12-82-26c-35-15-77-32-94-38c-16-7-50-22-75-34s-50-22-56-22c-7,0-19-11-28-24c-11-18-24-24-46-24
		c-16,1-38-6-48-15c-10-10-26-17-34-17c-9,0-18-10-22-22c-3-15-23-31-57-46c-28-13-58-30-67-38c-10-8-38-32-63-54s-49-40-53-40
		c-9,0-69-42-78-55c-28-39-33-45-40-45s-138-128-174-170c-12-14-30-32-40-42c-10-9-27-28-37-43c-11-14-30-30-43-35s-24-17-24-26
		c0-15-28-54-77-109c-44-48-103-128-109-148c-3-12-14-31-24-42s-22-33-27-50c-7-20-16-29-27-27s-16-4-16-20c0-13-7-33-15-44
		c-19-27-37-108-29-129c5-12,14-15,30-11c17,5,24,2,24-8c0-8,9-18,21-21c35-11,19-39-23-40c-28-1-43,5-60,22c-12,12-32,23-45,23
		s-26,7-29,15c-10,26-46,40-58,24c-6-8-33-32-59-53c-35-28-51-35-57-27c-4,7-10,77-12,155c-5,118-9,150-27,184c-11,22-25,43-30,47
		c-6,3-8,12-5,20c4,9-1,17-12,21s-35,21-54,39c-21,19-61,41-100,53c-58,18-67,19-92,6c-16-8-33-12-38-9s-21-2-35-11
		c-24-16-27-16-48,3c-13,12-43,23-72,27c-27,3-66,9-86,12c-26,4-47,0-75-15c-21-12-50-21-65-21c-19,0-46-20-97-70
		c-105-103-111-119-121-324c-4-84-10-131-18-133c-6-2-27,12-46,31c-19,20-44,36-56,36c-46,0-136-62-158-109c-7-14-17-33-22-41
		c-20-31-51-107-72-175c-11-38-25-74-29-80c-4-5-10-41-14-80c-3-38-10-92-16-120c-5-27-16-88-24-135c-9-47-20-107-26-135
		c-6-27-17-110-25-184s-17-142-20-152s-6-222-7-471c0-408,2-468,21-603c11-82,21-171,21-197c0-27,4-48,9-48s11-15,14-32
		c3-18,11-67,17-108s18-98,27-127c8-29,12-57,8-63s5-45,18-88c14-42,28-97,32-122c3-24,10-49,16-56c5-7,12-21,14-33s17-40,32-64
		c16-23,33-51,39-62s24-24,41-30c16-5,37-18,47-27c20-21,37-23,54-6c8,8-3,27-47,77c-75,85-101,128-101,169c0,18-6,45-14,60
		c-7,15-17,56-21,92c-4,35-14,74-22,86c-7,12-20,57-28,100c-7,44-18,97-24,119s-11,60-11,84s-7,69-14,100c-8,31-20,126-25,211
		c-6,85-15,182-21,215c-13,77-13,553,0,670c5,50,14,155,20,235s15,165,21,190s14,79,18,120c10,98,40,246,58,290c8,19,21,66,28,105
		c22,112,42,182,59,207c9,12,16,33,16,45c0,13,9,28,21,35c11,7,27,27,35,45c14,28,68,63,80,51c3-3,5-751,5-1661
		c0-1070,3-1658,9-1662c6-3,14,4,19,17c10,27,39,54,47,45c4-3,8-59,10-124c4-129,17-210,39-239c8-11,15-25,15-33c0-21,77-86,145-123
		l60-33l230,1c218,0,232,1,270,22c21,12,44,22,50,22c15,0,75,69,75,86c0,8,7,14,15,14c33,0,53,81,65,258c5,74,11,136,14,140
		c3,3,17-1,31-8s28-10,32-7c20,20,23,258,22,1707v1585l21,9c22,10,41-6,59-49c11-24,62-51,114-60c32-5,37-9,32-26c-7-20-7-20,80-22
		c17,0,52,0,78,1c42,2,48,4,42,21c-5,15,1,19,38,24c24,3,67,18,96,33c65,34,79,25,62-38c-9-33-11-409-8-1568c3-839,6-1541,8-1560
		c4-31,1-35-21-38c-17-3-31,4-45,21c-11,14-45,35-75,48c-47,20-72,24-165,24c-96,0-116-3-160-25c-27-13-66-41-86-62
		c-20-22-45-38-57-38s-22-6-22-14c0-16,44-29,71-21c11,4,19,2,19-4s5-11,11-11s8,9,4,20c-5,16-2,20,17,20c13,0,28,4,34,9
		c5,5,35,18,67,30c79,27,200,21,266-13c73-38,91-39,155-7c31,16,59,25,62,20s5-47,3-92c-1-45,3-104,10-132c6-27,14-70,18-94
		c5-37,16-53,65-101c43-42,71-61,103-69c25-6,45-15,45-20c0-17,164-4,213,18c27,12,55,21,63,21c7,0,21,12,31,28c10,15,36,45,59,67
		l41,40l2,95c2,99,6,116,22,88c5-10,17-14,29-11c22,6,26-7,8-25c-9-9-7-12,11-12c13,0,29-7,36-16c10-14,15-14,32-3c18,10,25,10,45-2
		c19-13,50-14,203-7c101,4,183,4,188-1s-20-29-57-56c-36-26-66-53-66-60s-7-15-15-19c-8-3-15-12-15-21c0-8-9-32-20-52
		c-38-71-19-235,37-320c33-49,43-67,54-96c11-28,88-84,151-110s63-37,4-111c-57-71-96-157-96-209c0-18-9-40-21-54
		c-16-16-19-26-12-35c6-7,13-44,15-83c4-49,16-97,42-160c31-76,39-112,51-229c8-76,12-142,10-147c-3-5-5-1043-4-2306
		c0-1264,0-2342-1-2395c-2-97-1-98,29-129c17-17,31-37,31-44s3-20,6-28c4-12-7-17-53-22c-65-8-151-47-160-73c-4-9-15-23-25-30
		s-32-41-50-75c-28-56-31-73-34-168c-3-93-1-113,21-168c30-77,61-114,135-163c69-44,131-68,181-68c20,0,39-3,42-6c4-4-7-33-24-65
		l-31-57l4-1799c4-1711,5-1800,22-1838c36-80,44-100,50-127c4-16,13-28,20-28c15,0,26-21,26-48c0-9,13-24,29-33c15-9,34-31,42-48
		s19-29,26-27c6,3,28-10,50-28c47-40,112-72,178-86c28-6,59-17,71-25c15-10,52-12,140-10c136,3,199,15,218,40c8,12,21,16,34,13
		c13-4,32,4,54,22c18,15,43,30,56,34c12,4,22,11,22,17c0,5,15,15,33,22c18,8,45,33,61,58c16,24,39,53,51,64c17,17,45,76,69,147
		c3,12,11,15,22,11c14-5,15-1,9,34c-4,26-2,43,4,48c7,4,11,54,11,135c0,106,3,131,16,145c10,9,26,14,37,11s29,0,40,5
		c10,6,65,13,121,15c83,3,103,7,111,21c6,10,25,31,43,48l32,31v182c0,169,1,183,20,202c38,38,192,21,222-24c4-6,8-75,8-152
		c0-78,3-156,7-174c4-21,25-52,60-86c48-47,58-53,85-47c22,4,33,2,39-9c7-13,30-15,136-12c71,1,147,5,169,8c55,7,124,35,124,50
		c0,7,15,27,34,45l34,33l10-30c13-38,64-76,103-78c16-1,38-9,49-19c21-19,54-18,167,5c61,12,95,34,129,85c9,15,15,78,18,225
		c5,212-2,280-32,314c-41,46-144,95-199,96c-30,0-46,34-38,77c5,28,3,35-7,31c-11-5-12,4-4,48c7,37,16,56,28,60c24,7,38,64,38,157
		c0,105-31,174-96,212c-37,21-54,23-290,28c-139,4-264,11-278,17c-27,10-27,10-24,102c3,82,5,93,21,90c19-3,23,14,5,21
		c-15,6,100,9,341,9c196,0,204,2,279,75c45,45,49,62,43,177c-5,77-26,121-85,180l-55,55l-73-6c-64-4-76-2-94,15
		c-30,28-20,102,16,118c15,8,102,14,225,17l200,4l16,27c9,15,25,33,35,41c17,12,20,33,25,202c4,103,9,212,12,241l5,52l-66,60
		c-48,44-77,61-111,69c-70,16-93,16-134,2c-22-7-54-10-75-7c-37,6-145,7-481,5c-160-1-177-3-203-22c-15-11-28-26-28-32s-13-24-29-39
		c-40-38-51-96-51-264c0-75-4-143-9-151c-6-9-29-13-77-11c-108,3-143,5-148,11c-12,11-24,147-17,189c4,25,4,77,1,116
		c-4,58-10,76-34,105c-42,50-84,78-142,95c-47,13-56,13-92-1c-22-9-43-22-45-29c-3-7-21-22-41-34l-35-21l-5,32c-8,49-12,407-4,407
		c19,0-46,101-82,127l-40,30l31,7c17,3,65,6,107,6c65,0,81,4,123,29c65,41,131,114,151,170c22,60,24,229,3,291c-8,25-17,56-19,70
		c-6,27-108,140-127,140c-7,0-20,7-30,16c-15,13-72,16-405,20c-213,3-392,8-396,10c-19,12-5,24,30,24c20,0,43,4,51,9s24,6,37,0
		c19-7,26-4,34,11c8,16,21,20,53,19c52-1,138,15,169,32c13,7,46,16,73,20c28,4,70,10,95,14c25,3,63,14,85,24c47,22,124,41,164,41
		c16,0,34,7,41,15s27,17,46,21c18,3,38,12,45,20c6,8,22,14,34,14s28,7,35,15s18,15,25,15s18,7,25,15s19,15,27,15s29,17,48,37
		c26,28,36,51,44,98c7,40,11,310,12,758c0,728-2,774-42,784c-10,3-36,42-60,92c-23,47-57,105-76,128c-18,23-33,45-34,50
		c0,4-22,26-49,48s-58,55-69,73c-11,17-25,32-31,32s-26,15-44,32c-18,18-52,50-75,72c-41,38-54,76-26,76c8,0,15,7,15,15
		c0,9,7,18,15,21c9,4,24,26,35,50c19,41,20,67,20,646c0,568-6,723-29,738c-5,3-11,15-15,26c-5,16-12,20-26,17c-24-6-27,18-5,37
		c8,7,15,18,15,25s9,19,21,26c36,24,41,93,43,546c1,327,4,435,14,445c6,6,12,24,12,39s7,32,15,39s15,24,15,39c0,14,7,40,16,56
		c24,45,20,231-7,305c-11,30-23,67-26,83c-6,30-42,73-86,102c-15,10-26,23-24,28c4,12,39,35,105,68c23,12,42,24,42,28s27,35,60,70
		c33,34,58,66,55,71s4,29,17,52c20,37,23,57,22,153c0,101-2,114-27,155c-14,25-33,59-41,77c-8,17-24,36-35,43c-12,6-21,17-21,26
		c0,8-7,17-15,20c-20,8-19,34,1,34c8,0,25-5,36-11c18-10,24-8,38,11c16,21,22,22,91,16c40-4,81-13,91-20c12-8,45-12,95-10
		c66,3,78,6,81,21c2,16,58,63,75,63c11,0,8-28-3-32c-5-2,1-25,15-52s25-59,25-71c0-13,7-28,15-35s15-23,15-36c0-36,97-103,182-125
		c39-9,72-20,75-23s15,0,26,6c11,5,37,10,59,10c57-1,162,52,173,88c3,11,14,22,23,25s27,27,40,53c19,39,25,74,32,192
		c5,80,9,146,10,148c0,1,17-6,38-17c67-34,103-36,161-6c28,14,56,23,61,20s23,1,39,9c49,26,167,5,269-48c17-9,53-16,80-16
		c52,0,84,21,124,80c16,24,17,17,16-147c-1-107,3-177,9-185c6-7,18-30,26-50c9-21,23-38,31-38c9,0,16-6,16-13c0-22,70-85,108-98
		c20-6,48-18,62-27c21-13,59-16,226-16c187,0,204,2,243,22c23,12,49,22,57,22c33,0,122,112,162,203c7,17,12,76,12,153
		c0,103,3,126,15,131c9,3,23-1,33-9c9-7,33-19,53-26c31-11,42-10,80,7c52,23,89,55,89,77c0,9,17,36,38,62c50,61,62,92,62,154
		c0,44,2,49,15,38s15-6,15,39c0,28,4,51,9,51s12,26,16,58c3,31,10,73,15,92s13,73,19,120s16,110,22,140c14,73,37,244,49,355
		c6,52,8,285,6,550c-4,366-8,479-21,555c-9,52-20,122-25,155c-4,33-15,92-23,130c-9,39-19,97-22,130c-4,33-13,83-20,110
		c-8,28-17,91-21,141c-6,82-8,91-25,87c-14-4-19,3-24,34c-3,21-15,56-25,78c-11,22-20,45-20,51s-10,18-22,26c-19,13-21,18-10,31
		c14,16,0,33-17,22c-6-3-15,3-20,14c-15,28-74,61-108,61c-16,0-44-11-63-25s-39-25-46-25c-13,0-28,107-19,132c4,9,0,37-8,64
		s-20,73-27,103c-25,110-111,199-218,226c-125,33-337,33-432,2c-25-8-58-18-73-21c-31-7-167-139-167-161c0-8-7-21-16-30
		c-14-14-16-41-15-192c2-121-1-173-8-168c-6,3-11,13-11,21s-14,21-31,28s-36,24-43,37c-6,13-19,25-29,27c-18,4-99-31-127-53
		c-23-19-87-26-94-10c-6,16,2,25,23,26c9,0,26,13,39,29c22,28,22,32,9,62c-8,18-20,53-27,78c-6,25-18,52-25,60s-16,25-19,37
		c-4,12-24,37-45,56s-50,60-64,90c-14,31-48,79-76,108s-51,60-51,69c0,20-27,46-37,37c-9-10-33,13-33,31c0,8-16,32-35,53
		c-19,22-35,44-35,49c0,6-6,10-12,8c-7-1-42,28-77,65s-70,67-78,67c-7,0-13,7-13,15s-6,15-13,15c-8,0-41,26-74,58
		c-32,31-76,71-97,87c-20,17-49,42-63,58c-16,17-33,25-43,22c-16-5-88,35-150,83c-21,16-53,33-172,93c-10,5-26,9-35,9
		c-10,0-31,9-48,20c-16,11-40,20-52,20s-25,5-28,10c-3,6-16,10-28,10s-31,7-41,15c-12,9-42,15-73,15c-42,0-54,4-63,20
		c-6,11-19,20-29,20s-26,9-35,19c-10,11-40,25-67,31c-27,7-52,16-55,21s-27,9-53,9c-27,0-77,9-111,20s-78,20-96,20s-102,9-186,19
		C6489,17270,6400,17271,6190,17259z M6590,17170c85-5,178-16,205-24c28-9,71-16,96-16s81-9,124-20s87-20,97-20c30,0,96-38,109-62
		c16-29,39-53,67-67c15-8,22-21,22-41c0-40,29-54,96-47c66,7,74,12,74,44c0,23-3,25-27,19c-70-18-84-18-109-2c-18,13-24,24-22,44
		c3,25,6,27,47,25c24-1,51-8,60-16s24-17,34-20c9-4,17-10,17-15s17-12,38-16c22-3,50-14,63-25c13-10,35-22,49-26s34-14,45-21
		c11-8,29-14,41-14c11,0,33-10,48-22c14-13,38-33,53-45c14-13,32-23,39-23s34-15,59-32c25-18,58-40,73-48c56-32,82-53,82-66
		s60-64,76-64c5,0,36-27,69-60s85-84,115-113c97-95,179-190,202-234c16-30,28-41,43-40c14,1,21-5,23-23c2-13,23-49,47-80
		c24-30,53-75,66-100c12-25,39-65,59-90c46-57,65-107,48-128c-10-12-29-13-93-9c-113,8-169,25-221,69c-54,45-84,98-84,150
		c0,40-48,133-81,156c-11,7-19,19-19,26s-19,26-42,41c-24,16-56,37-72,48c-24,16-51,21-145,24c-64,3-135,1-157-5c-50-11-56-8-130,63
		c-31,30-60,55-64,55c-5,0-31,18-59,40s-61,45-74,51c-12,5-44,23-72,39c-27,16-58,29-68,29c-19,1-94,41-136,73c-13,10-37,18-53,18
		s-41,6-56,14s-49,17-75,21c-39,6-47,10-42,25c6,20-18,30-75,30c-19,0-48,7-63,15c-16,8-67,20-115,26s-100,18-117,27
		c-25,13-81,16-350,16c-313,1-321,0-360-22c-22-12-57-22-80-22c-22,0-58-5-80-11c-80-20-111-27-158-34c-40-5-47-9-42-24s-2-20-37-25
		c-56-9-134-34-180-57c-20-11-44-19-52-19s-27-10-43-22c-37-30-82-54-117-62c-26-6-80-41-114-73c-7-7-18-13-23-13
		c-12,0-108-67-135-94c-63-64-92-78-139-65c-21,6-83,9-139,7c-99-3-102-4-176-48c-64-37-81-54-110-103c-19-32-44-69-57-81
		c-14-15-24-40-29-77c-18-139-96-197-276-202c-51-1-101,3-110,8c-17,10-16,14,6,55c14,25,32,60,40,78c9,17,21,32,26,32
		c6,0,10,6,10,14c0,7,18,36,41,65c22,28,44,63,48,79c5,17,15,28,30,30c15,3,24,13,28,34c3,18,30,56,64,93c33,34,59,66,59,71
		c1,15,43,61,67,73c13,6,41,36,64,66s47,55,54,55s36,27,65,60s58,60,66,60s22,9,31,20c10,11,28,20,40,20c15,0,23,6,23,16
		c0,19,53,69,110,104c22,14,77,49,122,78c81,53,160,92,184,92c7,0,25,10,41,23c39,32,116,67,144,67c14,0,33,6,44,14
		c11,7,37,16,58,19c20,3,49,15,62,26c14,10,45,23,68,26c23,4,51,14,62,21c11,8,39,14,63,14c23,0,58,6,76,14c18,7,71,17,117,21
		s104,14,129,23C6020,17175,6327,17186,6590,17170z M6534,16636c16-4,65-9,110-11c82-4,153-16,174-29c6-3,37-11,69-17
		c84-14,157-36,252-76c46-19,105-41,131-49s55-23,65-34s25-20,34-20s25-6,36-13s41-21,66-30c25-10,55-28,66-41c12-13,37-29,57-36
		c20-6,36-18,36-26s12-21,28-27c40-19,102-58,102-65c0-4,23-23,50-42c42-30,48-39,43-60c-8-35-12-40-32-40c-27,0-45-26-90-130
		c-23-55-47-96-56-98c-8-2-34,5-58,16c-35,17-73,21-223,26c-219,8-277-1-300-45c-8-16-19-27-23-25c-4,3-22,0-39-6c-26-10-34-9-50,5
		c-10,9-42,21-70,27c-29,5-63,15-75,22c-17,10-161,14-612,18c-324,3-604,1-620-4c-22-6-42-3-68,7c-33,14-38,14-45,1
		c-8-14-19-14-92-3c-109,16-263,6-298-18c-82-59-92-59-92-3c0,43-32,114-72,157c-21,24-38,48-38,54s-7,9-15,5c-18-7-48,35-40,56
		c3,8,20,22,38,31c18,10,57,37,87,62c30,24,60,44,67,45c6,0,24,11,40,24c15,13,38,26,50,30c13,4,26,18,29,32c3,13,14,24,23,24
		s38,11,65,25s56,25,64,25s34,13,58,30c24,16,61,34,83,40c21,5,44,17,51,25c12,14,27,20,135,50c33,9,68,21,79,27c19,10,90,25,169,35
		c26,3,50,10,53,14c3,5,25,9,49,9c25,0,64,4,87,10c24,5,61,13,83,18C6199,16648,6488,16646,6534,16636z M9774,16071c3-5,26-12,51-16
		c41-6,87-30,153-82c13-11,30-45,42-88c20-68,20-100,20-1315c0-1066-2-1249-15-1270c-8-14-19-35-24-47c-9-19-19-23-55-23
		c-45,0-87-27-86-54c1-28,97-105,131-106c9,0,23-8,33-18c15-17,16-62,13-498c-3-538,0-519-77-595c-89-88-91-89-314-89
		c-228,0-257,8-336,89c-77,80-73,11-77,1416c-1,682-6,1269-10,1305c-8,65-8,65-39,65s-32,1-38,57c-8,68,3,238,16,238c5,0,11-8,14-17
		c3-10,13-33,22-51c14-29,14-35,2-42c-13-8-12-14,3-39c11-19,15-39,11-56c-9-38,13-85,42-85c14,0,28-9,35-22c21-39,63-88,76-88
		c45,0,28,90-34,175c-36,50-43,66-43,107c0,45-18,108-43,153c-14,25-11,651,4,773c12,99,24,121,93,166c64,42,101,49,251,47
		c66-1,127,3,135,9C9749,16082,9767,16083,9774,16071z M3078,16056c18-22,35-82,41-140c4-41,11-62,24-70c28-17,37,8,37,104
		c0,59,5,91,15,104c14,19,19,19,78,7c34-7,70-21,80-32c10-10,24-19,31-19c21,0,77-87,92-143c12-43,14-314,14-1627
		c0-866,1-1583,3-1594c3-24-24-41-54-33c-23,6-36,22-93,115c-18,28-33,42-48,42c-19,0-20-4-15-51c7-54,11-61,92-137
		c87-82,102-101,108-130c11-52,1-345-13-397c-16-57-81-130-148-164c-38-19-58-21-240-21c-188,0-203,1-253,24c-44,19-61,34-88,77
		c-18,30-42,66-52,81c-19,26-19,74-17,1585l3,1558l45,6c61,9,97-10,104-54c3-17,7-102,10-187s11-172,17-194c6-21,14-83,17-139
		c4-55,12-102,17-103c6-2,18,3,27,10c17,12,17,23,3,177c-8,90-22,246-30,345c-13,150-19,192-40,238c-19,43-30,56-47,58
		c-13,0-36,3-53,5c-16,2-40,4-52,4c-12,1-23,6-25,13c-2,6-1,117,2,247c4,207,7,239,23,256c9,11,17,25,17,33c0,31,55,99,95,116
		C2891,16063,3059,16082,3078,16056z M4802,15988c23-12,56-38,73-57c62-71,59,40,62-1981c2-1696,1-1849-14-1890c-20-54-38-77-78-98
		c-16-8-35-22-41-30c-26-36-205-37-225-1c-5,11-18,19-28,19c-18,0-40,21-79,78c-23,33-23,34-25,412l-2,380l23,16c33,23,31,81-3,94
		l-25,9l1,1408c0,774,3,1433,7,1463c9,64,72,170,101,170c9,0,26,7,37,15C4618,16019,4750,16015,4802,15988z M8142,15987
		c26-13,65-43,85-67l38-44v-1916v-1915l-24-33c-14-17-44-41-68-53c-24-11-47-28-52-37c-8-14-25-17-97-16c-75,0-89,3-104,21
		c-9,11-25,23-36,27c-40,12-90,78-101,131c-14,75-8,3697,7,3769c8,40,17,57,31,61c10,4,19,10,19,15s21,25,46,45c45,33,50,35,128,35
		C8078,16010,8105,16005,8142,15987z M5312,15754c43,4,67,1,100-14c34-15,52-17,82-10c22,5,324,10,672,11c631,2,632,2,667-20
		c23-14,51-21,84-21c29,0,55-5,60-12s18-42,28-78s22-69,27-75c4-5,8-21,8-35c0-32,35-57,56-39c12,10,14,35,8,148l-7,136h257
		c221,0,256-2,256-15c0-8,1-806,3-1772l2-1758h-121c-134,0-140,2-150,61c-3,19-12,48-19,64c-7,17-16,75-20,130c-3,55-10,104-14,108
		s-21,9-37,10l-29,2v-125c0-120,1-127,28-164c15-21,27-49,27-62v-24H6184H5087l7,78c11,110,7,3348-4,3402c-6,33-5,51,5,66
		c12,19,18,20,87,11C5222,15752,5281,15751,5312,15754z M4358,15645c3-94,2-98-15-83c-10,9-29,18-43,20c-28,3-40,36-18,49
		c9,6,8,9-8,9c-11,0-23,3-27,6c-8,8,85,102,98,100C4351,15744,4356,15700,4358,15645z M8417,15705c19-20,30-41,27-50
		c-9-22,18-75,38-75c10,0,25-11,34-25c12-18,25-25,48-25c53,0,77-10,71-30c-5-15,2-19,52-23c109-10,158-1,147,26c-6,16,23,27,68,27
		c32,0,88,45,88,70c0,22,24,43,45,38c16-3,17-132,19-1638c1-899,5-1645,10-1657c7-21,5-23-20-23c-36,0-45,6-72,51
		c-14,24-32,39-50,42c-15,3-47,13-72,22c-56,21-207,15-242-9c-12-9-34-16-47-16c-15,0-34-10-46-26c-14-18-31-26-55-27l-35-2l1,50
		c5,208,3,3076-2,3133c-7,75-16,91-38,73c-20-17-26-3-26,59C8360,15752,8369,15757,8417,15705z M10266,15601c34-27,74-87,74-112
		c0-11,9-37,20-59s20-50,20-63s9-32,20-42s20-28,20-39c0-12,8-53,19-91c10-39,22-108,25-154c4-46,11-92,16-102c6-10,13-53,16-96
		c4-43,15-96,25-118c12-27,22-86,29-180c6-77,15-178,20-225c15-144,12-675-4-771c-8-46-17-142-21-213c-5-101-11-135-25-155
		c-12-18-20-53-24-110c-4-46-11-92-16-102c-6-10-13-53-16-96s-12-96-19-118s-16-63-20-92c-4-31-14-58-26-69c-10-9-21-33-25-53
		c-3-20-12-45-19-56c-6-11-15-31-18-45c-13-53-114-127-139-102c-6,6-9,38-7,79c2,37,4,773,4,1636v1567h23
		C10231,15620,10253,15611,10266,15601z M2658,15338c28-35,11-118-24-118c-27,0-44,71-28,114C2613,15353,2643,15355,2658,15338z
		 M10118,13170c2-67,0-82-14-87c-16-6-31,8-70,64c-15,21-14,25,5,52c13,18,27,28,36,25c8-4,18,1,21,10
		C10109,13267,10116,13247,10118,13170z M3565,12535c0-35-20-43-35-15c-9,16-8,25,1,36C3549,12577,3565,12567,3565,12535z
		 M7160,12010c17-12,30-27,30-33c0-7,8-25,17-42c25-44,25-266,0-312c-9-18-17-41-17-53c0-11-8-24-17-27c-10-4-38-26-62-50l-44-43
		h-243c-230,0-244-1-254-19c-16-31-12-76,11-105l20-26h167c154,0,168-2,198-22c49-34,97-112,116-192c18-75,24-231,9-240
		c-4-3-11-20-14-39c-3-18-24-71-46-118l-42-84v-435c0-239,2-446,5-460c4-16,0-33-12-48l-18-24l-62,37c-34,19-70,47-79,61
		c-10,14-27,37-39,52s-31,63-43,107s-29,103-38,132c-9,28-13,60-11,71c6,23-8,52-26,52c-20,0-50-37-36-45c6-4,10-23,9-44
		c-2-37,14-151,33-231c15-60,42-113,76-148c15-15,36-39,47-53c22-26,60-53,116-82c80-40,73,21,80-731c3-369,9-683,13-698
		c7-24,5-28-20-34c-24-6-32-2-58,29c-21,25-39,37-57,37c-15,0-32,7-39,15c-7,9-20,13-29,11c-9-3-27,1-41,9l-25,13v244v243l-28,59
		c-36,75-95,143-144,165c-143,65-205,72-313,37c-44-14-91-32-103-41c-53-35-117-107-139-157l-23-53V7093c0-882-2-1603-5-1603
		c-4,0-12,6-19,13c-8,8-47,12-121,12c-59,0-111,3-114,6c-4,3-6,1146-6,2540c0,2753,4,2565-51,2671c-10,20-19,43-19,50s-9,30-20,51
		c-28,51-28,168,0,228c11,24,20,54,20,67c0,12,6,22,14,22s18,10,21,23c17,59,46,107,64,107c11,0,23,5,26,10c4,7,86,10,235,9
		c223-1,228-1,259,22c37,27,40,60,9,89c-37,34-84,40-344,40c-243,0-253,1-292,23c-43,24-86,70-96,103c-4,12-18,34-33,50
		c-20,22-27,43-34,103c-9,74-4,144,12,187c4,12,28,43,52,68l45,46l449,2c246,2,593,2,771,1C7119,12031,7131,12030,7160,12010z
		 M6485,8855c17-12,38-24,47-28c27-10,101-118,110-161c5-23,10-121,13-219c4-194,8-223,36-279c11-21,19-42,19-48c0-7-79-9-237-9
		c-252,2-284-1-350-33c-23-12-49-18-59-14c-16,6-16,7,0,25c14,16,15,23,6,41c-8,15-11,75-9,184c1,88-1,177-5,196c-5,26-1,60,17,120
		c45,152,52,165,81,162c18-2,26,1,26,12c0,9,15,23,33,32c17,9,39,22,47,29C6295,8896,6439,8889,6485,8855z M6748,8027l54-2l-1-266
		c-1-146,1-273,5-282c3-10,25-27,48-39c37-19,56-21,211-19c93,0,211,4,262,7c91,7,92,7,98-18c3-13,5-359,3-769c-3-685-4-747-20-771
		c-21-32-54-44-73-28c-12,10-15,9-15-8c0-28-26-52-56-52c-13,0-41-9-61-20c-21-11-45-20-54-20c-8,0-43-11-77-25s-71-25-81-25
		c-11,0-35-6-53-14s-60-19-93-24c-115-20-240-48-260-59c-11-6-51-14-90-17c-75-7-255-42-292-57c-13-5-23-15-23-24c0-17,32-20,61-4
		c21,11,59,4,59-12c0-5-8-9-19-9c-10,0-24-7-31-15c-10-12-39-15-138-15c-98,0-123,3-114,12c7,7,12,19,12,28s11,27,24,39
		c14,13,26,33,28,44c5,32,25,31,43-2c18-36,40-40,55-11c9,16,185,110,206,110c7,0,98,75,139,115c12,11,32,36,45,55s27,37,32,40
		c10,7,74,124,95,173c15,34,20,37,55,37c21,0,38-4,38-9c0-12,78-56,115-65c16-4,40-16,53-27c14-10,33-19,43-19c30,0,49-11,49-30
		c0-14,14-20,68-28c37-6,92-16,123-23s64-9,74-5c17,6,15,9-13,26c-18,11-32,26-32,34s-12,19-27,25c-16,6-35,15-43,20
		c-8,6-44,22-80,37c-102,42-174,77-188,91c-7,7-23,13-35,13s-44,17-72,38c-127,95-131,95-179-3c-20-41-41-75-47-75c-5,0-9-6-9-14
		c0-7-20-40-45-72c-25-31-45-62-45-66c0-19-87-119-130-150c-25-18-85-65-133-105c-49-40-92-73-97-73c-14,0-17,35-9,96
		c5,32,9,192,8,354c0,162,0,306,0,320l1,25l498-1c273,0,512,2,530,4c35,5,52,26,35,43c-7,7-200,10-539,9l-529-1l-2,86
		c0,47,2,85,5,86c4,0,239,0,522,1c331,0,519,4,528,10c18,16,15,65-5,73c-10,3-246,5-526,4c-279-1-511,1-515,5s-8,39-9,77
		c-2,65,0,69,20,69c12,0,253,0,535,0c465,0,513,1,519,16c3,9,2,28-3,42l-9,25l-513-2c-386-2-517,1-528,10c-18,15-20,142-1,155
		c7,5,224,7,502,4c323-3,498-2,515,5c30,12,37,37,16,58c-13,13-84,15-528,15h-513l-3,80l-3,79l220-5c214-5,219-4,230,16
		c8,15,8,27,0,46c-11,23-15,24-78,21c-36-3-135-7-218-9l-153-5v64c0,35,5,76,12,91c11,24,16,26,53,19c66-11,304-21,332-13
		c14,4,30,13,34,20c13,19,11,56-3,64c-6,4-105,6-219,5c-164-2-207,0-211,11c-3,7-1,54,4,103c8,83,5,146-8,218c-4,21-1,29,15,35
		C6146,8034,6599,8034,6748,8027z M7016,7878c43-44,105-109,137-142c32-34,82-86,112-116c108-112,109-143,5-122c-33,7-120,12-194,11
		c-144-1-176,7-177,44c0,12-1,85-3,162s-7,164-11,193l-8,52h30C6931,7960,6952,7944,7016,7878z M5699,5363c8-15,37-18,278-21
		c278-4,454,4,418,19c-15,6-11,8,18,8c21,1,36-3,33-8c-10-15,77-20,357-20c147,0,282-3,299-7c47-10,82-40,107-90c19-38,22-59,22-170
		c0-70-3-141-7-159c-6-32-46-85-64-85c-6,0-18-8-28-18c-16-16-42-20-173-25c-203-9-1205-9-1293-1c-64,6-72,10-110,49
		c-23,23-48,44-57,47c-24,9-38,201-23,312c6,38,16,56,55,96c37,38,56,50,79,50s30,4,30,20C5640,5386,5685,5388,5699,5363z
		 M6218,4685c2-2-13-8-32-15c-20-6-36-16-36-21c0-4-12-15-27-22c-32-16-50-9-96,35l-28,27l33,4C6063,4697,6211,4691,6218,4685z
		 M6017,4585c2-6,4-666,6-1468c2-1283,4-1459,17-1467c8-5,34-10,57-10c41,0,43,1,53,40c8,28,12,489,16,1472c2,788,6,1434,8,1435
		c2,2,171,4,376,5c303,0,374-2,381-13c4-8,8-463,8-1011c0-1131-5-1058,76-1058c40,0,45,3,51,28c4,15,12,33,18,41c8,10,11,227,11,757
		c0,408,3,746,7,750c12,11,102,17,152,10c36-6,48-13,63-39c18-29,19-50,15-238c-4-183-3-207,12-222s41-17,191-16
		c239,0,220-23,220,258c0,190,2,222,16,236c15,15,65,17,480,17c446,1,464,0,474-18c6-10,14-25,19-33c5-7,9-109,9-225l1-211l-27-29
		l-26-28l-241,5c-237,6-240,5-251-15c-7-12-12-75-13-146c-1-112,1-125,18-134c10-6,79-11,152-12c93-1,137-5,146-14s13-50,13-143
		c0-119-2-132-20-145c-17-13-68-15-332-13c-231,3-316,0-325-9c-13-13-13-327,1-378l7-29h330h329l7-45c8-61-3-230-16-241
		c-6-6-19-15-29-22s-18-21-17-32c0-11,0-67-1-125c0-99,1-107,25-133s26-26,118-20c90,6,94,5,124-21l32-26l-6-222
		c-2-123-8-225-13-228c-4-3-12-17-18-31l-10-26l-123,2c-68,2-126,3-130,4c-4,0-14,16-23,35c-12,26-15,55-12,118c2,45,2,89,0,96
		c-3,8-28,12-79,12c-71,0-75-1-84-26c-6-14-7-55-4-92c4-50,2-77-10-104c-9-21-20-38-24-39c-13-1-427-1-439,0c-25,2-33,68-33,277v213
		l-24,19c-22,17-41,18-197,17c-154-2-174-4-186-20c-10-14-13-69-13-229c0-138-4-221-12-243l-12-33h-136c-106,0-144,4-169,16
		c-32,16-34,16-58-9c-23-23-25-28-14-58c30-87,0-370-46-420c-12-14-23-35-23-47c0-11-10-31-23-44s-43-47-67-76c-23-29-59-62-79-73
		c-20-10-43-23-51-28c-77-48-256-80-341-62c-24,5-70,12-101,16c-32,3-60,10-63,15s-29,21-57,35c-56,28-178,131-178,150
		c0,7-6,18-14,24c-7,6-16,29-20,51c-3,21-13,43-22,48c-40,22-47,110-54,707c-9,694-12,2984-4,2996C5793,4603,6013,4597,6017,4585z"
		/>
	<path class="st0" d="M4500,13000c0-11,5-20,10-20c6,0,10,9,10,20s-4,20-10,20C4505,13020,4500,13011,4500,13000z"/>
</g>
</svg>
